<?xml version="1.0" encoding="UTF-8"?>
<svg width="36px" height="36px" viewBox="0 0 36 36" version="1.1" xmlns="http://www.w3.org/2000/svg" xmlns:xlink="http://www.w3.org/1999/xlink">
    <!-- Generator: Sketch 45.1 (43504) - http://www.bohemiancoding.com/sketch -->
    <title>logo_altera</title>
    <desc>Created with Sketch.</desc>
    <defs></defs>
    <g id="Page-1" stroke="none" stroke-width="1" fill="none" fill-rule="evenodd">
        <g id="logo_altera" fill="#FFFFFF">
            <path d="M18.0909091,0 C20.9090909,0 23.5454545,0.639593909 25.9090909,1.82741117 C25.0909091,2.01015228 24.2727273,2.28426396 23.3636364,2.64974619 C19.9090909,4.47715736 16.3636364,8.1319797 12.8181818,13.7055838 C11.9090909,13.6142132 11.2727273,13.6142132 10.7272727,13.6142132 C8.36363636,13.6142132 6.36363636,14.071066 4.81818182,15.0761421 C3.27272727,16.0812183 2.45454545,17.2690355 2.45454545,18.7309645 C2.45454545,19.4619289 2.72727273,20.0101523 3.18181818,20.4670051 C3.63636364,20.8324873 4.27272727,21.106599 4.90909091,21.106599 C5.54545455,21.106599 6.09090909,20.9238579 6.54545455,20.6497462 C7,20.3756345 7.18181818,20.0101523 7.18181818,19.6446701 C7.18181818,19.2791878 7.09090909,18.9137056 7,18.6395939 C6.90909091,18.3654822 6.72727273,18.2741117 6.63636364,18.2741117 C6.90909091,17.5431472 7.45454545,17.0862944 8.27272727,16.7208122 C9.09090909,16.4467005 10.0909091,16.1725888 11.3636364,16.1725888 C10.4545455,17.7258883 9.63636364,19.2791878 8.90909091,20.9238579 C7,25.035533 5.81818182,28.5076142 5.45454545,31.0659898 C2.09090909,27.7766497 0,23.2081218 0,18.0913706 C0.181818182,8.04060914 8.18181818,0 18.0909091,0 L18.0909091,0 Z M29.7272727,4.3857868 L23.8181818,32.3451777 L18,32.3451777 L21.0909091,17.5431472 C19.2727273,16.7208122 17.4545455,16.2639594 15.6363636,16.0812183 C13.1818182,21.4720812 11.5454545,26.4974619 10.7272727,30.9746193 C10.4545455,32.2538071 10.3636364,33.3502538 10.3636364,34.2639594 C12.7272727,35.3604061 15.2727273,36 18.0909091,36 C28,36 36,27.9593909 36,18 C35.9090909,12.5177665 33.5454545,7.6751269 29.7272727,4.3857868 L29.7272727,4.3857868 Z M16.4545455,14.2538071 C18.2727273,14.6192893 19.9090909,15.0761421 21.3636364,15.6243655 L23.7272727,4.56852792 C21.4545455,5.84771574 19.0909091,9.04568528 16.4545455,14.2538071 Z" id="Shape"></path>
        </g>
    </g>
</svg>