<?xml version="1.0" encoding="UTF-8"?>
<svg width="12px" height="14px" viewBox="0 0 12 14" version="1.1" xmlns="http://www.w3.org/2000/svg" xmlns:xlink="http://www.w3.org/1999/xlink">
    <!-- Generator: Sketch 45.1 (43504) - http://www.bohemiancoding.com/sketch -->
    <title>Group 2</title>
    <desc>Created with Sketch.</desc>
    <defs></defs>
    <g id="Page-1" stroke="none" stroke-width="1" fill="none" fill-rule="evenodd" stroke-linecap="round" stroke-linejoin="round">
        <g id="Group-2" transform="translate(1.000000, 1.000000)" stroke="#FFFFFF">
            <path d="M2.1969697,0 L1.09848485,0 C0.491846591,0 0,0.472172727 0,1.05454545 L0,10.5454545 C0,9.96308182 0.491846591,9.49090909 1.09848485,9.49090909 L8.78787879,9.49090909 C9.39479167,9.49090909 9.88636364,9.01873636 9.88636364,8.43636364 L9.88636364,1.05454545 C9.88636364,0.472172727 9.39479167,0 8.78787879,0 L5.49242424,0" id="Stroke-633"></path>
            <path d="M8.78787879,11.6 C9.39451705,11.6 9.88636364,11.1278273 9.88636364,10.5454545 L9.88636364,9.49090909 L9.88636364,8.43636364 C9.88636364,9.01873636 9.39451705,9.49090909 8.78787879,9.49090909 L1.09848485,9.49090909 C0.491846591,9.49090909 0,9.96308182 0,10.5454545 C0,11.1278273 0.491846591,11.6 1.09848485,11.6 L8.78787879,11.6 L8.78787879,11.6 Z" id="Stroke-634"></path>
            <polygon id="Stroke-635" points="5.49242424 3.16363636 3.84469697 2.25974026 2.1969697 3.16363636 2.1969697 0 5.49242424 0"></polygon>
        </g>
    </g>
</svg>