<?xml version="1.0" encoding="UTF-8"?>
<svg width="82px" height="82px" viewBox="0 0 82 82" version="1.1" xmlns="http://www.w3.org/2000/svg" xmlns:xlink="http://www.w3.org/1999/xlink">
    <!-- Generator: Sketch 45.1 (43504) - http://www.bohemiancoding.com/sketch -->
    <title>Group 31</title>
    <desc>Created with Sketch.</desc>
    <defs></defs>
    <g id="Page-1" stroke="none" stroke-width="1" fill="none" fill-rule="evenodd">
        <g id="Group-31" transform="translate(1.000000, 1.000000)" stroke="#FFFFFF">
            <g id="Group-5">
                <circle id="Oval-3" cx="40" cy="40" r="40"></circle>
            </g>
            <path d="M40.8159936,34.4462396 L47.8822011,44.4220101 L47.8822011,44.4220101 C48.2014323,44.8726872 48.0948744,45.4968212 47.6441973,45.8160525 C47.4752199,45.9357454 47.2732523,46.0000294 47.066178,46.0000294 L32.9337631,46.0000294 L32.9337631,46.0000294 C32.3814784,46.0000294 31.9337631,45.5523142 31.9337631,45.0000294 C31.9337631,44.7929551 31.9980471,44.5909875 32.1177401,44.4220101 L39.1839475,34.4462396 L39.1839475,34.4462396 C39.5031788,33.9955625 40.1273128,33.8890046 40.5779899,34.2082359 C40.6702021,34.2735532 40.7506763,34.3540275 40.8159936,34.4462396 Z" id="Triangle-4" transform="translate(40.000000, 40.000029) rotate(90.000000) translate(-40.000000, -40.000029) "></path>
        </g>
    </g>
</svg>